<svg width="2445" height="1521" viewBox="0 0 2445 1521" fill="none" xmlns="http://www.w3.org/2000/svg">
<path d="M320.491 814.898L293.025 894H228.206L341.146 584.405H417.61L530.11 894H465.95L438.484 814.898H320.491ZM379.378 632.086C377.913 637.945 375.862 644.977 373.226 653.18C370.589 661.383 368.685 667.169 367.513 670.538L334.993 766.119H423.982L390.584 668.561C388.533 662.555 386.629 656.476 384.871 650.323C383.113 644.171 381.282 638.092 379.378 632.086ZM798.616 774.029C798.616 813.727 790.633 844.415 774.666 866.095C758.846 887.628 736.434 898.395 707.43 898.395C673.006 898.395 648.982 884.332 635.359 856.207H634.041C634.92 860.602 635.359 873.932 635.359 896.197V987.384H573.616V710.968C573.616 699.688 573.47 689.508 573.177 680.426C572.884 671.344 572.444 663.287 571.858 656.256H631.844C632.43 658.014 632.869 661.017 633.162 665.265C633.602 669.366 633.895 674.054 634.041 679.327C634.334 684.601 634.48 689.801 634.48 694.928H635.359C642.244 680.279 652.059 669.366 664.803 662.188C677.547 654.864 693.074 651.202 711.385 651.202C739.07 651.202 760.53 661.896 775.765 683.282C790.999 704.522 798.616 734.771 798.616 774.029ZM734.236 774.029C734.236 747.369 730.135 727.374 721.932 714.044C713.875 700.714 701.644 694.049 685.237 694.049C668.831 694.049 656.233 701.227 647.444 715.582C638.802 729.938 634.48 750.006 634.48 775.787C634.48 801.422 638.802 821.271 647.444 835.333C656.233 849.249 668.685 856.207 684.798 856.207C701.351 856.207 713.729 849.396 721.932 835.772C730.135 822.003 734.236 801.422 734.236 774.029ZM910.457 567.926V613.409H848.714V567.926H910.457ZM910.457 656.256V894H848.714V656.256H910.457Z" fill="white"/>
<rect x="1024" y="388" width="1147" height="745" rx="233" fill="#FF2A21"/>
<path d="M1261.85 634.503V894H1197.03V634.503H1097.05V584.405H1362.04V634.503H1261.85ZM1516.29 846.759C1508.09 864.776 1497.62 877.887 1484.87 886.09C1472.27 894.293 1457.26 898.395 1439.83 898.395C1414.63 898.395 1395.3 890.704 1381.82 875.323C1368.34 859.796 1361.6 837.091 1361.6 807.208V656.256H1423.35V789.63C1423.35 810.431 1426.86 826.104 1433.89 836.651C1440.93 847.052 1451.47 852.252 1465.54 852.252C1480.48 852.252 1492.49 845.88 1501.57 833.136C1510.8 820.245 1515.41 803.766 1515.41 783.697V656.256H1577.16V840.826C1577.16 850.934 1577.3 860.455 1577.6 869.391C1577.89 878.18 1578.33 886.383 1578.91 894H1520.03C1519.15 883.453 1518.49 874.225 1518.05 866.314C1517.61 858.404 1517.39 851.886 1517.39 846.759H1516.29ZM1865.22 774.249C1865.22 813.507 1857.31 844.049 1841.49 865.875C1825.81 887.555 1803.33 898.395 1774.03 898.395C1757.19 898.395 1742.61 894.732 1730.31 887.408C1718 880.084 1708.55 869.537 1701.96 855.768H1701.52C1701.52 859.137 1701.38 863.531 1701.08 868.951C1700.79 874.371 1700.42 879.498 1699.98 884.332C1699.54 889.02 1699.03 892.242 1698.45 894H1638.46C1639.05 887.115 1639.49 879.205 1639.78 870.27C1640.07 861.188 1640.22 851.007 1640.22 839.728V567.926H1701.96V658.893C1701.96 665.338 1701.81 671.783 1701.52 678.229C1701.38 684.674 1701.23 691.119 1701.08 697.564H1701.96C1708.85 682.33 1718.66 670.904 1731.4 663.287C1744.15 655.67 1759.68 651.861 1777.99 651.861C1806.11 651.861 1827.64 662.555 1842.59 683.941C1857.67 705.182 1865.22 735.284 1865.22 774.249ZM1800.84 774.249C1800.84 747.296 1796.88 727.301 1788.97 714.264C1781.06 701.227 1768.83 694.708 1752.28 694.708C1735.58 694.708 1722.83 701.739 1714.05 715.802C1705.4 729.718 1701.08 749.859 1701.08 776.227C1701.08 801.422 1705.33 821.051 1713.83 835.113C1722.47 849.176 1735.14 856.207 1751.84 856.207C1768.25 856.207 1780.48 849.396 1788.53 835.772C1796.74 822.149 1800.84 801.642 1800.84 774.249ZM1966.29 786.993C1966.29 810.138 1970.54 827.643 1979.04 839.508C1987.68 851.227 1999.91 857.086 2015.73 857.086C2026.57 857.086 2035.43 854.742 2042.32 850.055C2049.35 845.221 2054.26 838.116 2057.04 828.741L2115.27 833.795C2098.42 876.861 2064.22 898.395 2012.65 898.395C1976.91 898.395 1949.45 887.848 1930.26 866.754C1911.07 845.514 1901.47 814.605 1901.47 774.029C1901.47 734.771 1911.21 704.596 1930.7 683.502C1950.18 662.408 1977.79 651.861 2013.53 651.861C2047.66 651.861 2073.74 663.214 2091.76 685.919C2109.77 708.478 2118.78 741.583 2118.78 785.235V786.993H1966.29ZM2059.02 748.321C2057.84 729.132 2053.23 714.776 2045.17 705.255C2037.12 695.587 2026.28 690.753 2012.65 690.753C1998.15 690.753 1986.95 695.807 1979.04 705.914C1971.27 716.021 1967.17 730.157 1966.73 748.321H2059.02Z" fill="white"/>
</svg>
